<?xml version="1.0" encoding="utf-8"?>
<!-- Generator: Adobe Illustrator 27.0.1, SVG Export Plug-In . SVG Version: 6.00 Build 0)  -->
<svg version="1.1" id="Ebene_1" xmlns="http://www.w3.org/2000/svg" xmlns:xlink="http://www.w3.org/1999/xlink" x="0px" y="0px"
	 viewBox="0 0 276.14 53.89" style="enable-background:new 0 0 276.14 53.89;" xml:space="preserve">
<style type="text/css">
	.st0{fill:#003E66;}
	.st1{fill:#FFFFFF;}
</style>
<g>
	<path class="st1" d="M186.31,45.88c-0.32,0.32-0.76,0.49-1.25,0.49c-1.02,0-1.81-0.75-1.81-1.9v-1.22c0-1.17,0.78-1.92,1.8-1.92
		c1.02,0,1.8,0.75,1.8,1.92v1.22c0,0.41-0.1,0.77-0.27,1.06l0.48,0.41c0.04,0.03,0.05,0.07,0.05,0.09c0,0.03-0.01,0.06-0.04,0.08
		l-0.13,0.15c-0.03,0.03-0.05,0.04-0.09,0.04c-0.03,0-0.06-0.01-0.11-0.05L186.31,45.88z M185.91,45.54l-0.85-0.73
		c-0.03-0.03-0.04-0.06-0.04-0.09c0-0.02,0.01-0.06,0.03-0.08l0.11-0.13c0.04-0.05,0.07-0.06,0.11-0.06c0.03,0,0.06,0.01,0.1,0.04
		l0.81,0.69c0.1-0.2,0.15-0.43,0.15-0.71v-1.21c0-0.9-0.57-1.42-1.27-1.42c-0.7,0-1.26,0.53-1.26,1.42v1.21
		c0,0.89,0.57,1.41,1.27,1.41C185.39,45.87,185.69,45.75,185.91,45.54z"/>
	<path class="st1" d="M191.14,41.39c0.07,0,0.12,0.06,0.12,0.13v2.96c0,1.16-0.71,1.89-1.72,1.89c-1.01,0-1.72-0.73-1.72-1.89v-2.96
		c0-0.07,0.05-0.13,0.11-0.13h0.29c0.07,0,0.13,0.06,0.13,0.13v2.96c0,0.9,0.5,1.39,1.19,1.39c0.69,0,1.19-0.5,1.19-1.39v-2.96
		c0-0.07,0.05-0.13,0.12-0.13H191.14z"/>
	<path class="st1" d="M192.36,46.23c-0.03,0.06-0.07,0.07-0.11,0.07h-0.35c-0.04,0-0.08-0.03-0.08-0.08c0-0.03,0.02-0.08,0.04-0.14
		l1.66-4.57c0.02-0.06,0.06-0.11,0.13-0.11h0.4c0.07,0,0.11,0.06,0.13,0.11l1.69,4.62c0.01,0.03,0.03,0.08,0.03,0.1
		c0,0.05-0.03,0.08-0.08,0.08h-0.36c-0.07,0-0.1-0.03-0.11-0.07l-0.45-1.23h-2.12L192.36,46.23z M193.85,42.01l-0.88,2.49h1.77
		L193.85,42.01z"/>
	<path class="st1" d="M197.08,46.3h-0.29c-0.06,0-0.11-0.04-0.11-0.11v-4.66c0-0.07,0.05-0.13,0.11-0.13h0.35
		c0.08,0,0.11,0.06,0.14,0.1l2.4,3.8v-3.77c0-0.07,0.04-0.13,0.11-0.13h0.29c0.07,0,0.12,0.06,0.12,0.13v4.66
		c0,0.07-0.05,0.11-0.12,0.11h-0.24c-0.05,0-0.11,0-0.19-0.13l-2.46-3.88v3.9C197.2,46.25,197.15,46.3,197.08,46.3z"/>
	<path class="st1" d="M200.95,41.52c0-0.07,0.05-0.13,0.12-0.13h3.47c0.07,0,0.13,0.06,0.13,0.13v0.26c0,0.07-0.06,0.12-0.13,0.12
		h-1.47v4.29c0,0.07-0.05,0.11-0.12,0.11h-0.29c-0.07,0-0.11-0.04-0.11-0.11V41.9h-1.48c-0.07,0-0.12-0.05-0.12-0.12V41.52z"/>
	<path class="st1" d="M208.66,41.39c0.07,0,0.12,0.06,0.12,0.13v2.96c0,1.16-0.71,1.89-1.72,1.89c-1.01,0-1.72-0.73-1.72-1.89v-2.96
		c0-0.07,0.05-0.13,0.11-0.13h0.29c0.07,0,0.13,0.06,0.13,0.13v2.96c0,0.9,0.5,1.39,1.19,1.39s1.19-0.5,1.19-1.39v-2.96
		c0-0.07,0.05-0.13,0.12-0.13H208.66z"/>
	<path class="st1" d="M210.01,46.3c-0.06,0-0.11-0.04-0.11-0.11v-4.66c0-0.07,0.05-0.13,0.11-0.13h0.56c0.06,0,0.09,0.03,0.11,0.07
		l1.55,4.11l1.56-4.1c0.02-0.05,0.05-0.08,0.1-0.08h0.55c0.06,0,0.12,0.06,0.12,0.13v4.66c0,0.07-0.06,0.11-0.12,0.11h-0.29
		c-0.07,0-0.11-0.04-0.11-0.11v-4.04l-1.56,4.08c-0.02,0.05-0.06,0.08-0.11,0.08h-0.27c-0.07,0-0.09-0.03-0.11-0.08l-1.57-4.08v4.04
		c0,0.07-0.05,0.11-0.12,0.11H210.01z"/>
	<path class="st1" d="M220.61,41.39c0.07,0,0.12,0.06,0.12,0.13v2.96c0,1.16-0.71,1.89-1.72,1.89c-1.01,0-1.72-0.73-1.72-1.89v-2.96
		c0-0.07,0.05-0.13,0.11-0.13h0.29c0.07,0,0.13,0.06,0.13,0.13v2.96c0,0.9,0.5,1.39,1.19,1.39s1.19-0.5,1.19-1.39v-2.96
		c0-0.07,0.05-0.13,0.12-0.13H220.61z"/>
	<path class="st1" d="M224.52,42.72c-0.07,0-0.11-0.03-0.12-0.11c-0.03-0.43-0.23-0.81-1.04-0.81c-0.64,0-1.09,0.17-1.09,0.81
		c0,1.41,2.78,0.54,2.78,2.39c0,1-0.86,1.36-1.69,1.36c-1.32,0-1.78-0.92-1.78-1.5c0-0.07,0.05-0.12,0.12-0.12h0.3
		c0.07,0,0.11,0.06,0.12,0.11c0.01,0.31,0.22,1.03,1.25,1.03c0.66,0,1.16-0.24,1.16-0.88c0-1.3-2.79-0.46-2.79-2.39
		c0-0.9,0.67-1.3,1.62-1.3c1.25,0,1.58,0.76,1.58,1.28c0,0.06-0.06,0.11-0.12,0.11H224.52z"/>
	<path class="st1" d="M229.03,41.78c0,0.07-0.06,0.12-0.13,0.12h-2.37v1.67h1.9c0.07,0,0.12,0.05,0.12,0.12v0.26
		c0,0.07-0.05,0.12-0.12,0.12h-1.9v1.73h2.37c0.07,0,0.13,0.06,0.13,0.12v0.27c0,0.07-0.06,0.11-0.13,0.11h-2.79
		c-0.06,0-0.11-0.04-0.11-0.11v-4.66c0-0.07,0.05-0.13,0.11-0.13h2.79c0.07,0,0.13,0.06,0.13,0.13V41.78z"/>
	<path class="st1" d="M230.47,46.19c0,0.07-0.06,0.11-0.13,0.11h-0.29c-0.06,0-0.11-0.04-0.11-0.11v-4.66
		c0-0.07,0.05-0.13,0.11-0.13h1.67c0.9,0,1.51,0.48,1.51,1.41v0.11c0,0.62-0.33,1.13-1.05,1.32l1.01,1.89
		c0.02,0.04,0.03,0.07,0.03,0.1c0,0.05-0.03,0.08-0.08,0.08h-0.39c-0.07,0-0.11-0.04-0.13-0.09l-0.98-1.89h-1.18V46.19z
		 M230.47,43.82h1.23c0.53,0,1-0.29,1-0.9v-0.11c0-0.69-0.48-0.91-1-0.91h-1.23V43.82z"/>
	<path class="st1" d="M238.84,41.78c0,0.07-0.06,0.12-0.13,0.12h-2.37v1.83h1.9c0.07,0,0.12,0.05,0.12,0.12v0.26
		c0,0.07-0.05,0.12-0.12,0.12h-1.9v1.96c0,0.07-0.06,0.11-0.13,0.11h-0.29c-0.06,0-0.11-0.04-0.11-0.11v-4.66
		c0-0.07,0.05-0.13,0.11-0.13h2.79c0.07,0,0.13,0.06,0.13,0.13V41.78z"/>
	<path class="st1" d="M239.23,46.23c-0.03,0.06-0.07,0.07-0.11,0.07h-0.35c-0.04,0-0.08-0.03-0.08-0.08c0-0.03,0.02-0.08,0.04-0.14
		l1.66-4.57c0.02-0.06,0.06-0.11,0.13-0.11h0.4c0.07,0,0.11,0.06,0.13,0.11l1.69,4.62c0.01,0.03,0.03,0.08,0.03,0.1
		c0,0.05-0.03,0.08-0.08,0.08h-0.36c-0.07,0-0.1-0.03-0.11-0.07l-0.45-1.23h-2.12L239.23,46.23z M240.72,42.01l-0.88,2.49h1.77
		L240.72,42.01z"/>
	<path class="st1" d="M246.75,44.65c0.04,0,0.08,0.04,0.08,0.08c-0.05,0.87-0.73,1.63-1.75,1.63c-1.02,0-1.81-0.75-1.81-1.9v-1.23
		c0-1.17,0.78-1.91,1.8-1.91c1.02,0,1.65,0.71,1.76,1.56c0.01,0.08-0.03,0.11-0.1,0.11h-0.36c-0.04,0-0.08-0.03-0.09-0.11
		c-0.09-0.57-0.52-1.06-1.21-1.06c-0.7,0-1.26,0.52-1.26,1.41v1.22c0,0.89,0.57,1.41,1.27,1.41c0.69,0,1.13-0.46,1.21-1.13
		c0.01-0.06,0.04-0.09,0.09-0.09H246.75z"/>
	<path class="st1" d="M247.93,46.3c-0.06,0-0.11-0.04-0.11-0.11v-4.66c0-0.07,0.05-0.13,0.11-0.13h0.29c0.07,0,0.13,0.06,0.13,0.13
		v4.66c0,0.07-0.06,0.11-0.13,0.11H247.93z"/>
	<path class="st1" d="M252.61,46.19c0,0.07-0.06,0.11-0.12,0.11h-2.84c-0.06,0-0.11-0.04-0.11-0.11v-4.66
		c0-0.07,0.05-0.13,0.11-0.13h0.29c0.07,0,0.13,0.06,0.13,0.13v4.28h2.42c0.06,0,0.12,0.06,0.12,0.13V46.19z"/>
	<path class="st1" d="M253.51,46.3c-0.06,0-0.11-0.04-0.11-0.11v-4.66c0-0.07,0.05-0.13,0.11-0.13h0.29c0.07,0,0.13,0.06,0.13,0.13
		v4.66c0,0.07-0.06,0.11-0.13,0.11H253.51z"/>
	<path class="st1" d="M254.67,41.52c0-0.07,0.05-0.13,0.12-0.13h3.47c0.07,0,0.13,0.06,0.13,0.13v0.26c0,0.07-0.06,0.12-0.13,0.12
		h-1.47v4.29c0,0.07-0.05,0.11-0.12,0.11h-0.29c-0.07,0-0.11-0.04-0.11-0.11V41.9h-1.48c-0.07,0-0.12-0.05-0.12-0.12V41.52z"/>
	<path class="st1" d="M260.48,46.3c-0.07,0-0.12-0.04-0.12-0.11v-1.95l-1.64-2.63c-0.01-0.03-0.06-0.08-0.06-0.13
		c0-0.05,0.03-0.08,0.08-0.08h0.39c0.04,0,0.08,0.03,0.11,0.08l1.39,2.26l1.39-2.26c0.03-0.04,0.05-0.08,0.11-0.08h0.38
		c0.05,0,0.08,0.03,0.08,0.08c0,0.03-0.03,0.08-0.05,0.12l-1.65,2.64v1.95c0,0.07-0.05,0.11-0.12,0.11H260.48z"/>
</g>
<g>
	<path class="st1" d="M194.78,11.96c0.3,0,0.54,0.24,0.54,0.54V26.8c0,4.14-2.82,6.45-6.06,6.45c-3.09,0-6-2.31-6-6.45v-0.66
		c0-0.3,0.21-0.51,0.51-0.51H185c0.3,0,0.51,0.21,0.51,0.51v0.72c0,2.88,1.8,4.26,3.75,4.26c1.98,0,3.78-1.38,3.78-4.26V12.5
		c0-0.3,0.21-0.54,0.48-0.54H194.78z"/>
	<path class="st1" d="M213.91,11.96c0.3,0,0.51,0.24,0.51,0.54v12.66c0,4.98-3.03,8.1-7.38,8.1c-4.32,0-7.38-3.12-7.38-8.1V12.5
		c0-0.3,0.21-0.54,0.48-0.54h1.26c0.3,0,0.54,0.24,0.54,0.54v12.66c0,3.84,2.13,5.97,5.1,5.97c2.97,0,5.1-2.13,5.1-5.97V12.5
		c0-0.3,0.21-0.54,0.51-0.54H213.91z"/>
	<path class="st1" d="M220.92,32.95h-1.23c-0.27,0-0.48-0.18-0.48-0.48V12.5c0-0.3,0.21-0.54,0.48-0.54h1.5
		c0.33,0,0.48,0.24,0.6,0.42l10.29,16.29V12.5c0-0.3,0.18-0.54,0.48-0.54h1.23c0.3,0,0.51,0.24,0.51,0.54v19.98
		c0,0.3-0.21,0.48-0.51,0.48h-1.02c-0.21,0-0.48,0-0.81-0.57l-10.53-16.62v16.71C221.44,32.77,221.23,32.95,220.92,32.95z"/>
	<path class="st1" d="M239.91,32.95c-0.27,0-0.48-0.18-0.48-0.48V12.5c0-0.3,0.21-0.54,0.48-0.54h1.26c0.3,0,0.54,0.24,0.54,0.54
		v19.98c0,0.3-0.24,0.48-0.54,0.48H239.91z"/>
	<path class="st1" d="M259.16,31.15c-1.35,1.35-3.24,2.1-5.34,2.1c-4.35,0-7.74-3.21-7.74-8.16v-5.22c0-5.01,3.33-8.22,7.71-8.22
		c4.35,0,7.71,3.21,7.71,8.22v5.22c0,1.77-0.42,3.3-1.17,4.56l2.04,1.74c0.18,0.15,0.21,0.3,0.21,0.39c0,0.12-0.06,0.24-0.15,0.36
		l-0.54,0.66c-0.12,0.12-0.21,0.15-0.39,0.15c-0.15,0-0.27-0.06-0.45-0.21L259.16,31.15z M257.45,29.71l-3.66-3.12
		c-0.12-0.12-0.18-0.24-0.18-0.39c0-0.09,0.06-0.24,0.15-0.36l0.45-0.54c0.18-0.21,0.3-0.27,0.45-0.27c0.12,0,0.24,0.06,0.42,0.18
		l3.48,2.94c0.42-0.84,0.66-1.86,0.66-3.06V19.9c0-3.84-2.46-6.09-5.43-6.09c-3,0-5.4,2.25-5.4,6.09v5.19
		c0,3.81,2.43,6.03,5.43,6.03C255.2,31.12,256.5,30.61,257.45,29.71z"/>
</g>
<g>
	<g>
		<g>
			<path class="st1" d="M75.45,13.18c0-0.51-0.42-0.93-0.93-0.93h-2.49c-0.51,0-0.93,0.42-0.93,0.93v13.56
				c0,1.89-1.47,2.73-2.55,2.73c-1.08,0-2.52-0.84-2.52-2.73v-0.27c0-0.51-0.42-0.93-0.93-0.93h-2.4c-0.51,0-0.93,0.42-0.93,0.93
				v0.21c0,4.35,3.36,6.87,6.78,6.87c3.48,0,6.9-2.52,6.9-6.87V13.18z M80.37,42.56c0-0.43,0.39-0.57,0.84-0.57
				c0.7,0,0.88,0.35,0.98,0.64c0.04,0.1,0.07,0.16,0.19,0.16h0.65c0.09,0,0.18-0.06,0.18-0.18c0-0.05-0.01-0.1-0.02-0.13
				c-0.15-0.61-0.65-1.39-1.93-1.39c-1.02,0-1.96,0.44-1.96,1.52c0,2.1,2.94,1.23,2.94,2.31c0,0.48-0.36,0.66-0.95,0.66
				c-0.75,0-0.97-0.42-1.06-0.69c-0.03-0.1-0.07-0.17-0.19-0.17H79.4c-0.1,0-0.18,0.07-0.19,0.17c-0.01,0.05,0,0.11,0.01,0.14
				c0.12,0.7,0.78,1.44,2.05,1.44c1.08,0,2.03-0.4,2.03-1.57C83.3,42.83,80.37,43.69,80.37,42.56z M77.6,41.19h-0.13
				c-0.67,0-1.12,0.35-1.38,0.78v-0.53c0-0.13-0.1-0.25-0.24-0.25h-0.58c-0.13,0-0.24,0.11-0.24,0.25v4.69
				c0,0.13,0.1,0.24,0.24,0.24h0.62c0.13,0,0.25-0.1,0.25-0.24v-2.34c0-0.97,0.45-1.49,1.31-1.49h0.15c0.13,0,0.25-0.1,0.25-0.24
				v-0.62C77.84,41.31,77.73,41.19,77.6,41.19z M95.05,12.25h-2.49c-0.51,0-0.93,0.42-0.93,0.93v11.88c0,3.09-1.5,4.41-3.63,4.41
				s-3.57-1.32-3.57-4.41V13.18c0-0.51-0.42-0.93-0.93-0.93h-2.49c-0.51,0-0.93,0.42-0.93,0.93v11.88c0,5.25,3.18,8.49,7.92,8.49
				c4.74,0,7.98-3.24,7.98-8.49V13.18C95.98,12.67,95.56,12.25,95.05,12.25z M87,42.04c0.61,0,0.94,0.37,1.08,0.91
				c0.01,0.07,0.07,0.16,0.18,0.16h0.71c0.09,0,0.15-0.07,0.15-0.17c0-0.04,0-0.08-0.02-0.13c-0.22-0.95-0.97-1.72-2.1-1.72
				c-1.23,0-2.2,0.91-2.2,2.36v0.67c0,1.45,0.97,2.35,2.2,2.35c1.29,0,1.98-0.95,2.1-1.67c0.01-0.05,0.02-0.12,0.02-0.17
				c0-0.09-0.07-0.17-0.18-0.17h-0.71c-0.08,0-0.15,0.04-0.17,0.14c-0.13,0.61-0.5,0.91-1.07,0.91c-0.64,0-1.12-0.45-1.12-1.28
				v-0.92C85.89,42.5,86.36,42.04,87,42.04z M93.34,41.09c-0.73,0-1.16,0.3-1.43,0.69v-2.41c0-0.13-0.11-0.25-0.25-0.25h-0.63
				c-0.13,0-0.24,0.11-0.24,0.25v6.76c0,0.13,0.1,0.24,0.24,0.24h0.63c0.13,0,0.25-0.1,0.25-0.24v-2.8c0-0.83,0.46-1.28,1.1-1.28
				c0.64,0,1.1,0.46,1.1,1.28v2.8c0,0.13,0.1,0.24,0.24,0.24h0.63c0.13,0,0.25-0.1,0.25-0.24v-2.68
				C95.22,42.04,94.61,41.09,93.34,41.09z M91.33,10.42c1.29,0,2.16-0.87,2.16-2.16S92.62,6.1,91.33,6.1
				c-1.29,0-2.16,0.87-2.16,2.16S90.04,10.42,91.33,10.42z M85.03,10.42c1.29,0,2.16-0.87,2.16-2.16S86.32,6.1,85.03,6.1
				c-1.29,0-2.16,0.87-2.16,2.16S83.74,10.42,85.03,10.42z M23.29,23.56L30.7,4.39c-9.2-1-18.29,3.76-22.61,12.21
				c-0.01,0.04-0.02,0.08-0.03,0.12l-0.32,0.83c-2.24,5.8,1.18,10.08,4.5,11.36C15.55,30.2,21.05,29.36,23.29,23.56z M101.31,41.19
				h-0.63c-0.13,0-0.24,0.11-0.24,0.25v2.8c0,0.83-0.41,1.28-1.05,1.28c-0.63,0-1.01-0.45-1.01-1.28v-2.8
				c0-0.13-0.11-0.25-0.25-0.25h-0.63c-0.13,0-0.24,0.11-0.24,0.25v2.68c0,1.45,0.59,2.35,1.81,2.35c0.74,0,1.12-0.29,1.38-0.66
				v0.32c0,0.13,0.1,0.24,0.24,0.24h0.63c0.13,0,0.25-0.1,0.25-0.24v-4.69C101.55,41.31,101.44,41.19,101.31,41.19z M67.64,39.12
				H63.6c-0.13,0-0.24,0.11-0.24,0.25v6.76c0,0.13,0.1,0.24,0.24,0.24h0.63c0.13,0,0.25-0.1,0.25-0.24v-2.65h2.49
				c0.13,0,0.25-0.1,0.25-0.24v-0.56c0-0.13-0.11-0.25-0.25-0.25h-2.49v-2.27h3.16c0.13,0,0.25-0.1,0.25-0.24v-0.56
				C67.89,39.24,67.77,39.12,67.64,39.12z M71.05,41.09c-1.24,0-2.22,0.91-2.22,2.36v0.67c0,1.45,0.98,2.35,2.22,2.35
				c1.25,0,2.23-0.9,2.23-2.35v-0.67C73.29,42,72.31,41.09,71.05,41.09z M72.17,44.25c0,0.83-0.47,1.28-1.12,1.28
				c-0.63,0-1.11-0.45-1.11-1.28v-0.92c0-0.83,0.48-1.28,1.11-1.28c0.65,0,1.12,0.46,1.12,1.28V44.25z M36.71,28.53
				c-4.44,11.5-15.06,15.82-24.75,14.15c2.22,2.3,4.96,4.17,8.14,5.4c11.68,4.51,24.81-1.3,29.32-12.98
				c3.44-8.89,0.88-18.62-5.69-24.75L36.71,28.53z M112.9,45.36h-1.34c-0.35,0-0.51-0.1-0.51-0.36c0-0.24,0.17-0.37,0.41-0.37h1
				c1.16,0,1.96-0.62,1.96-1.76v-2.12c0-0.13-0.1-0.24-0.24-0.24h-0.52c-0.14,0-0.25,0.1-0.25,0.24v0.67
				c-0.31-0.23-0.69-0.33-1.05-0.33h-0.26c-1.17,0-1.97,0.68-1.97,1.78c0,0.55,0.21,0.95,0.66,1.26c-0.49,0.11-0.7,0.44-0.7,0.85
				c0,0.35,0.15,0.64,0.47,0.79c-0.46,0.23-0.7,0.64-0.7,1.19c0,0.87,0.64,1.58,1.82,1.58h1.2c1.16,0,1.81-0.7,1.81-1.58
				C114.71,46.08,114.06,45.36,112.9,45.36z M112.15,41.96h0.28c0.62,0,0.97,0.38,0.97,0.91c-0.01,0.54-0.37,0.9-0.97,0.9h-0.28
				c-0.61,0-0.97-0.36-0.97-0.9C111.18,42.34,111.54,41.96,112.15,41.96z M112.69,47.68h-0.82c-0.7,0-0.95-0.28-0.95-0.72
				c0-0.46,0.25-0.75,0.95-0.75h0.82c0.71,0,0.97,0.29,0.97,0.75C113.67,47.4,113.41,47.68,112.69,47.68z M136.04,41.09
				c-0.72,0-1.15,0.3-1.42,0.7v-0.35c0-0.13-0.11-0.25-0.25-0.25h-0.63c-0.13,0-0.24,0.11-0.24,0.25v4.69c0,0.13,0.1,0.24,0.24,0.24
				h0.63c0.13,0,0.25-0.1,0.25-0.24v-2.8c0-0.83,0.45-1.28,1.1-1.28c0.64,0,1.1,0.46,1.1,1.28v2.8c0,0.13,0.1,0.24,0.24,0.24h0.63
				c0.13,0,0.25-0.1,0.25-0.24v-2.68C137.93,42.04,137.31,41.09,136.04,41.09z M129.48,41.09c-1.24,0-2.23,0.91-2.23,2.36v0.67
				c0,1.45,0.99,2.35,2.24,2.35c0.77,0,1.67-0.37,2.04-1.38c0.02-0.05,0.05-0.11,0.05-0.17c0-0.1-0.07-0.18-0.17-0.18h-0.67
				c-0.14,0-0.21,0.1-0.24,0.14c-0.28,0.55-0.66,0.63-1.01,0.63c-0.64,0-1.13-0.5-1.13-1.23v-0.14h3.07c0.13,0,0.24-0.11,0.24-0.25
				v-0.48C131.67,42.04,130.7,41.09,129.48,41.09z M130.6,43.37h-2.23v-0.11c0-0.75,0.48-1.21,1.12-1.21c0.64,0,1.12,0.44,1.12,1.2
				V43.37z M125.47,41.19h-3.41c-0.13,0-0.25,0.11-0.25,0.25v0.49c0,0.13,0.11,0.24,0.25,0.24h2.35L122,45.25
				c-0.12,0.14-0.19,0.22-0.19,0.46v0.42c0,0.13,0.11,0.24,0.25,0.24h3.41c0.13,0,0.24-0.1,0.24-0.24v-0.48
				c0-0.13-0.1-0.25-0.24-0.25h-2.39l2.47-3.06c0.12-0.15,0.15-0.25,0.15-0.4v-0.5C125.71,41.31,125.61,41.19,125.47,41.19z
				 M153.09,41.19h-0.63c-0.13,0-0.24,0.11-0.24,0.25v2.8c0,0.83-0.41,1.28-1.05,1.28c-0.63,0-1.02-0.45-1.02-1.28v-2.8
				c0-0.13-0.11-0.25-0.25-0.25h-0.63c-0.13,0-0.24,0.11-0.24,0.25v2.68c0,1.45,0.59,2.35,1.81,2.35c0.75,0,1.12-0.29,1.38-0.66
				v0.32c0,0.13,0.1,0.24,0.24,0.24h0.63c0.13,0,0.25-0.1,0.25-0.24v-4.69C153.34,41.31,153.22,41.19,153.09,41.19z M142.44,41.19
				h-1.05v-1.1c0-0.13-0.1-0.25-0.24-0.25h-0.61c-0.13,0-0.24,0.11-0.24,0.25v0.46c0,0.53-0.21,0.64-0.71,0.64
				c-0.13,0-0.24,0.11-0.24,0.25v0.5c0,0.13,0.1,0.24,0.24,0.24h0.7v2.54c0,1.07,0.36,1.66,1.6,1.66h0.54c0.13,0,0.25-0.1,0.25-0.24
				V45.6c0-0.13-0.11-0.24-0.25-0.24h-0.35c-0.62,0-0.69-0.22-0.69-0.81v-2.38h1.05c0.13,0,0.25-0.1,0.25-0.24v-0.5
				C142.68,41.31,142.57,41.19,142.44,41.19z M142.53,25.75h-3.09c-0.6,0-0.72,0.48-0.78,0.93c-0.15,1.44-1.23,2.79-3.42,2.79
				c-2.19,0-3.96-1.62-3.96-4.71V20.8c0-3.09,1.77-4.77,3.96-4.77c2.19,0,3.18,1.47,3.42,2.91c0.09,0.6,0.42,0.81,0.75,0.81h3.06
				c0.45,0,0.69-0.3,0.66-0.75c-0.24-3.63-3.09-7.05-7.89-7.05c-4.8,0-8.31,3.54-8.31,8.79v4.02c0,5.25,3.51,8.79,8.31,8.79
				c4.8,0,7.68-3.54,7.95-7.08C143.22,26.14,142.95,25.75,142.53,25.75z M161.06,41.09c-0.71,0-1.25,0.3-1.6,0.84
				c-0.33-0.59-0.89-0.84-1.52-0.84c-0.71,0-1.1,0.32-1.35,0.69v-0.34c0-0.13-0.11-0.25-0.25-0.25h-0.63
				c-0.13,0-0.24,0.11-0.24,0.25v4.69c0,0.13,0.1,0.24,0.24,0.24h0.63c0.13,0,0.25-0.1,0.25-0.24v-2.64c0-0.84,0.17-1.45,1.04-1.45
				c0.81,0,0.98,0.51,0.98,1.45v2.64c0,0.13,0.1,0.24,0.24,0.24h0.64c0.12,0,0.24-0.1,0.24-0.24v-2.64c0-0.89,0.21-1.45,1.04-1.45
				s0.98,0.56,0.98,1.45v2.64c0,0.13,0.1,0.24,0.24,0.24h0.63c0.13,0,0.25-0.1,0.25-0.24v-2.53
				C162.88,42.1,162.58,41.09,161.06,41.09z M162,12.25h-2.49c-0.51,0-0.93,0.42-0.93,0.93v7.5h-7.11v-7.5
				c0-0.51-0.42-0.93-0.93-0.93h-2.49c-0.51,0-0.93,0.42-0.93,0.93v19.14c0,0.51,0.42,0.93,0.93,0.93h2.49
				c0.51,0,0.93-0.42,0.93-0.93v-7.56h7.11v7.56c0,0.51,0.42,0.93,0.93,0.93H162c0.51,0,0.93-0.42,0.93-0.93V13.18
				C162.93,12.67,162.51,12.25,162,12.25z M106.24,41.09c-0.72,0-1.15,0.3-1.42,0.7v-0.35c0-0.13-0.11-0.25-0.25-0.25h-0.63
				c-0.13,0-0.24,0.11-0.24,0.25v4.69c0,0.13,0.1,0.24,0.24,0.24h0.63c0.13,0,0.25-0.1,0.25-0.24v-2.8c0-0.83,0.46-1.28,1.1-1.28
				c0.64,0,1.1,0.46,1.1,1.28v2.8c0,0.13,0.1,0.24,0.24,0.24h0.63c0.13,0,0.25-0.1,0.25-0.24v-2.68
				C108.14,42.04,107.52,41.09,106.24,41.09z M114.18,32.32V30.1c0-0.51-0.42-0.93-0.93-0.93h-7.98V13.18
				c0-0.51-0.42-0.93-0.93-0.93h-2.49c-0.51,0-0.93,0.42-0.93,0.93v19.14c0,0.51,0.42,0.93,0.93,0.93h11.4
				C113.76,33.25,114.18,32.83,114.18,32.32z M117.29,42.56c0-0.43,0.39-0.57,0.84-0.57c0.7,0,0.88,0.35,0.98,0.64
				c0.04,0.1,0.07,0.16,0.19,0.16h0.65c0.09,0,0.18-0.06,0.18-0.18c0-0.05-0.01-0.1-0.02-0.13c-0.16-0.61-0.65-1.39-1.94-1.39
				c-1.02,0-1.95,0.44-1.95,1.52c0,2.1,2.94,1.23,2.94,2.31c0,0.48-0.36,0.66-0.95,0.66c-0.74,0-0.97-0.42-1.05-0.69
				c-0.03-0.1-0.07-0.17-0.19-0.17h-0.64c-0.1,0-0.18,0.07-0.19,0.17c-0.01,0.05,0,0.11,0.01,0.14c0.12,0.7,0.78,1.44,2.05,1.44
				c1.08,0,2.03-0.4,2.03-1.57C120.22,42.83,117.29,43.69,117.29,42.56z M147.13,41.19h-0.13c-0.67,0-1.12,0.35-1.38,0.78v-0.53
				c0-0.13-0.1-0.25-0.24-0.25h-0.58c-0.13,0-0.24,0.11-0.24,0.25v4.69c0,0.13,0.1,0.24,0.24,0.24h0.62c0.13,0,0.25-0.1,0.25-0.24
				v-2.34c0-0.97,0.45-1.49,1.31-1.49h0.14c0.13,0,0.25-0.1,0.25-0.24v-0.62C147.37,41.31,147.26,41.19,147.13,41.19z M122.43,32.32
				V13.18c0-0.51-0.42-0.93-0.93-0.93h-2.49c-0.51,0-0.93,0.42-0.93,0.93v19.14c0,0.51,0.42,0.93,0.93,0.93h2.49
				C122.01,33.25,122.43,32.83,122.43,32.32z"/>
		</g>
	</g>
</g>
<rect x="172.68" y="4.27" class="st1" width="0.8" height="45.36"/>
</svg>
